<?xml version="1.0" encoding="UTF-8" standalone="no"?>
<!-- Created with Inkscape (http://www.inkscape.org/) -->

<svg
   xmlns:dc="http://purl.org/dc/elements/1.1/"
   xmlns:cc="http://creativecommons.org/ns#"
   xmlns:rdf="http://www.w3.org/1999/02/22-rdf-syntax-ns#"
   xmlns:svg="http://www.w3.org/2000/svg"
   xmlns="http://www.w3.org/2000/svg"
   xmlns:sodipodi="http://sodipodi.sourceforge.net/DTD/sodipodi-0.dtd"
   xmlns:inkscape="http://www.inkscape.org/namespaces/inkscape"
   version="1.1"
   id="svg2"
   xml:space="preserve"
   width="422.66666"
   height="370.66666"
   viewBox="0 0 422.66666 370.66666"
   sodipodi:docname="nightshades.svg"
   inkscape:version="0.92.4 (5da689c313, 2019-01-14)"><metadata
     id="metadata8"><rdf:RDF><cc:Work
         rdf:about=""><dc:format>image/svg+xml</dc:format><dc:type
           rdf:resource="http://purl.org/dc/dcmitype/StillImage" /><dc:title></dc:title></cc:Work></rdf:RDF></metadata><defs
     id="defs6"><clipPath
       clipPathUnits="userSpaceOnUse"
       id="clipPath28"><path
         d="M 0,0 H 396.00228 V 347.80049 H 0 Z"
         id="path26"
         inkscape:connector-curvature="0"
         style="clip-rule:evenodd" /></clipPath></defs><sodipodi:namedview
     pagecolor="#ffffff"
     bordercolor="#666666"
     borderopacity="1"
     objecttolerance="10"
     gridtolerance="10"
     guidetolerance="10"
     inkscape:pageopacity="0"
     inkscape:pageshadow="2"
     inkscape:window-width="1857"
     inkscape:window-height="1058"
     id="namedview4"
     showgrid="false"
     inkscape:zoom="2.5467627"
     inkscape:cx="193.68232"
     inkscape:cy="172.33391"
     inkscape:window-x="1016"
     inkscape:window-y="-8"
     inkscape:window-maximized="1"
     inkscape:current-layer="g10" /><g
     id="g10"
     inkscape:groupmode="layer"
     inkscape:label="nightshades"
     transform="matrix(1.3333333,0,0,-1.3333333,0,370.66667)"><g
       id="g12"
       transform="matrix(0.8,0,0,-0.8,0,278)"><g
         id="g14"><g
           id="g16" /></g><g
         id="g18"><g
           id="g20" /></g><g
         id="g22"><g
           id="g24"
           clip-path="url(#clipPath28)"><g
             id="g30" /><g
             id="g32" /><g
             id="g34"
             transform="translate(0.5,0.5)" /><g
             id="g36"
             transform="translate(149.15024,149.15024)" /><g
             id="g38" /><g
             id="g40"
             transform="translate(149.15024,149.15024)" /><g
             id="g42"
             transform="rotate(-36.25,290.94811,-188.24052)" /><g
             id="g44"
             transform="rotate(-60,190.53187,-77.475161)" /><g
             id="g46"
             transform="rotate(-12.5,742.55163,-724.73961)" /><g
             id="g48"
             transform="rotate(-40,253.38457,-201.9836)" /><g
             id="g50"
             transform="rotate(-20,471.43394,-496.25551)" /><g
             id="g52"
             transform="rotate(15,-517.78198,837.78075)" /><g
             id="g54"
             transform="translate(227.11571,149.15024)" /><g
             id="g56"
             transform="rotate(30,-242.58274,497.84508)" /><g
             id="g58"
             transform="rotate(20,-400.25505,791.81511)" /><g
             id="g60"
             transform="rotate(40,-182.21198,422.04519)" /><g
             id="g62"
             transform="rotate(-36.25,288.67859,-187.42413)"><path
               d="M 0,1.5 Z"
               style="fill:none;stroke:#808080;stroke-width:0.9375;stroke-linecap:butt;stroke-linejoin:bevel;stroke-miterlimit:10;stroke-dasharray:1, 2;stroke-dashoffset:0;stroke-opacity:1"
               id="path64"
               inkscape:connector-curvature="0" /></g><g
             id="g66"
             transform="rotate(-36.25,288.67859,-187.42413)"><path
               d="M 0,1.5 Z"
               style="fill:none;stroke:#000000;stroke-width:0.9375;stroke-linecap:butt;stroke-linejoin:bevel;stroke-miterlimit:10;stroke-dasharray:none;stroke-opacity:1"
               id="path68"
               inkscape:connector-curvature="0" /></g><g
             id="g70"
             transform="rotate(-36.25,288.67859,-187.42413)"><path
               d="M 3,1.5 C 3,2.3284271 2.3284271,3 1.5,3 0.67157288,3 0,2.3284271 0,1.5 0,0.67157288 0.67157288,0 1.5,0 2.3284271,0 3,0.67157288 3,1.5 Z"
               style="fill:#0030c1;fill-opacity:1;fill-rule:evenodd;stroke:#0030c1;stroke-width:1;stroke-linecap:square;stroke-linejoin:bevel;stroke-miterlimit:10;stroke-dasharray:none;stroke-opacity:1"
               id="path72"
               inkscape:connector-curvature="0" /></g><g
             id="g74"
             transform="rotate(-36.25,289.46984,-192.75662)" /><g
             id="g76"
             transform="rotate(-36.25,290.96984,-188.17413)" /><g
             id="g78"
             transform="rotate(-36.25,290.96984,-188.17413)" /><g
             id="g80"
             transform="translate(149.15024,149.15024)"><path
               d="M 25.295148,-5.6200933 C 23.706991,-12.800186 19.139734,-18.860745 12.956354,-22.438794"
               style="fill:none;stroke:#000000;stroke-width:0.9375;stroke-linecap:butt;stroke-linejoin:bevel;stroke-miterlimit:10;stroke-dasharray:none;stroke-opacity:1"
               id="path82"
               inkscape:connector-curvature="0" /></g><g
             id="g84"
             transform="rotate(-60,183.42859,-72.778405)"><path
               d="M 22.862967,8.5 Z"
               style="fill:none;stroke:#808080;stroke-width:0.9375;stroke-linecap:butt;stroke-linejoin:bevel;stroke-miterlimit:10;stroke-dasharray:1, 2;stroke-dashoffset:0;stroke-opacity:1"
               id="path86"
               inkscape:connector-curvature="0" /></g><g
             id="g88"
             transform="rotate(-60,183.42859,-72.778405)"><path
               d="M 0,8.5 H 22.862967"
               style="fill:none;stroke:#000000;stroke-width:0.9375;stroke-linecap:butt;stroke-linejoin:bevel;stroke-miterlimit:10;stroke-dasharray:none;stroke-opacity:1"
               id="path90"
               inkscape:connector-curvature="0" /></g><g
             id="g92"
             transform="rotate(-60,178.05929,-96.078316)"><path
               d="M 3,1.5 C 3,2.3284271 2.3284271,3 1.5,3 0.67157288,3 0,2.3284271 0,1.5 0,0.67157288 0.67157288,0 1.5,0 2.3284271,0 3,0.67157288 3,1.5 Z"
               style="fill:#0030c1;fill-opacity:1;fill-rule:evenodd;stroke:#0030c1;stroke-width:1;stroke-linecap:square;stroke-linejoin:bevel;stroke-miterlimit:10;stroke-dasharray:none;stroke-opacity:1"
               id="path94"
               inkscape:connector-curvature="0" /></g><g
             id="g96"
             transform="rotate(-60,170.49711,-95.176391)" /><g
             id="g98"
             transform="rotate(-60,170.49711,-95.176391)"><g
               id="g100"><text
                 transform="translate(0,14)"
                 style="font-variant:normal;font-weight:normal;font-size:13px;font-family:'Segoe UI Emoji';-inkscape-font-specification:SegoeUIEmojiRegular;writing-mode:lr-tb;fill:#000000;fill-opacity:1;fill-rule:nonzero;stroke:none"
                 id="text104"><tspan
                   x="0"
                   y="0"
                   id="tspan102"></tspan></text>
</g></g><g
             id="g106"
             transform="rotate(-60,179.35833,-96.828315)" /><g
             id="g108"
             transform="rotate(-60,179.35833,-96.828315)" /><g
             id="g110"
             transform="rotate(-12.5,735.7143,-723.89042)"><path
               d="M 22.862967,1.5 Z"
               style="fill:none;stroke:#808080;stroke-width:0.9375;stroke-linecap:butt;stroke-linejoin:bevel;stroke-miterlimit:10;stroke-dasharray:1, 2;stroke-dashoffset:0;stroke-opacity:1"
               id="path112"
               inkscape:connector-curvature="0" /></g><g
             id="g114"
             transform="rotate(-12.5,735.7143,-723.89042)"><path
               d="M 0,1.5 H 22.862967"
               style="fill:none;stroke:#000000;stroke-width:0.9375;stroke-linecap:butt;stroke-linejoin:bevel;stroke-miterlimit:10;stroke-dasharray:none;stroke-opacity:1"
               id="path116"
               inkscape:connector-curvature="0" /></g><g
             id="g118"
             transform="rotate(-12.5,724.28281,-828.27055)"><path
               d="M 3,1.5 C 3,2.3284271 2.3284271,3 1.5,3 0.67157288,3 0,2.3284271 0,1.5 0,0.67157288 0.67157288,0 1.5,0 2.3284271,0 3,0.67157288 3,1.5 Z"
               style="fill:#0030c1;fill-opacity:1;fill-rule:evenodd;stroke:#0030c1;stroke-width:1;stroke-linecap:square;stroke-linejoin:bevel;stroke-miterlimit:10;stroke-dasharray:none;stroke-opacity:1"
               id="path120"
               inkscape:connector-curvature="0" /></g><g
             id="g122"
             transform="rotate(-12.5,729.63101,-842.71696)" /><g
             id="g124"
             transform="rotate(-12.5,731.13101,-829.02056)" /><g
             id="g126"
             transform="rotate(-12.5,731.13101,-829.02056)" /><g
             id="g128"
             transform="translate(149.15024,149.15024)"><path
               d="M 50.036478,13.416498 C 51.180954,9.1374188 51.791123,4.6399657 51.791123,0 c 0,-12.676639 -4.554374,-24.289546 -12.116119,-33.29172"
               style="fill:none;stroke:#000000;stroke-width:0.9375;stroke-linecap:butt;stroke-linejoin:bevel;stroke-miterlimit:10;stroke-dasharray:none;stroke-opacity:1"
               id="path130"
               inkscape:connector-curvature="0" /></g><g
             id="g132"
             transform="rotate(-40,241.89625,-197.21581)"><path
               d="M 22.862967,8.5 Z"
               style="fill:none;stroke:#808080;stroke-width:0.9375;stroke-linecap:butt;stroke-linejoin:bevel;stroke-miterlimit:10;stroke-dasharray:1, 2;stroke-dashoffset:0;stroke-opacity:1"
               id="path134"
               inkscape:connector-curvature="0" /></g><g
             id="g136"
             transform="rotate(-40,241.89625,-197.21581)"><path
               d="M 0,8.5 H 22.862967"
               style="fill:none;stroke:#000000;stroke-width:0.9375;stroke-linecap:butt;stroke-linejoin:bevel;stroke-miterlimit:10;stroke-dasharray:none;stroke-opacity:1"
               id="path138"
               inkscape:connector-curvature="0" /></g><g
             id="g140"
             transform="rotate(-40,240.08093,-232.12356)"><path
               d="M 3,1.5 C 3,2.3284271 2.3284271,3 1.5,3 0.67157288,3 0,2.3284271 0,1.5 0,0.67157288 0.67157288,0 1.5,0 2.3284271,0 3,0.67157288 3,1.5 Z"
               style="fill:#0030c1;fill-opacity:1;fill-rule:evenodd;stroke:#0030c1;stroke-width:1;stroke-linecap:square;stroke-linejoin:bevel;stroke-miterlimit:10;stroke-dasharray:none;stroke-opacity:1"
               id="path142"
               inkscape:connector-curvature="0" /></g><g
             id="g144"
             transform="rotate(-40,228.96476,-232.74477)" /><g
             id="g146"
             transform="rotate(-40,228.96476,-232.74477)"><g
               id="g148"><text
                 transform="translate(0,14)"
                 style="font-variant:normal;font-weight:normal;font-size:13px;font-family:'Segoe UI Emoji';-inkscape-font-specification:SegoeUIEmojiRegular;writing-mode:lr-tb;fill:#000000;fill-opacity:1;fill-rule:nonzero;stroke:none"
                 id="text152"><tspan
                   x="0"
                   y="0"
                   id="tspan150"></tspan></text>
</g></g><g
             id="g154"
             transform="rotate(-40,242.14154,-232.87356)" /><g
             id="g156"
             transform="rotate(-40,242.14154,-232.87356)" /><g
             id="g158"
             transform="rotate(-20,448.93097,-491.22244)"><path
               d="M 22.862967,8 Z"
               style="fill:none;stroke:#808080;stroke-width:0.9375;stroke-linecap:butt;stroke-linejoin:bevel;stroke-miterlimit:10;stroke-dasharray:1, 2;stroke-dashoffset:0;stroke-opacity:1"
               id="path160"
               inkscape:connector-curvature="0" /></g><g
             id="g162"
             transform="rotate(-20,448.93097,-491.22244)"><path
               d="M 0,8 H 22.862967"
               style="fill:none;stroke:#000000;stroke-width:0.9375;stroke-linecap:butt;stroke-linejoin:bevel;stroke-miterlimit:10;stroke-dasharray:none;stroke-opacity:1"
               id="path164"
               inkscape:connector-curvature="0" /></g><g
             id="g166"
             transform="rotate(-20,455.93116,-559.30361)"><path
               d="M 3,1.5 C 3,2.3284271 2.3284271,3 1.5,3 0.67157288,3 0,2.3284271 0,1.5 0,0.67157288 0.67157288,0 1.5,0 2.3284271,0 3,0.67157288 3,1.5 Z"
               style="fill:#0030c1;fill-opacity:1;fill-rule:evenodd;stroke:#0030c1;stroke-width:1;stroke-linecap:square;stroke-linejoin:bevel;stroke-miterlimit:10;stroke-dasharray:none;stroke-opacity:1"
               id="path168"
               inkscape:connector-curvature="0" /></g><g
             id="g170"
             transform="rotate(-20,435.99949,-564.56053)" /><g
             id="g172"
             transform="rotate(-20,435.99949,-564.56053)"><g
               id="g174"><text
                 transform="translate(0,13)"
                 style="font-variant:normal;font-weight:normal;font-size:13px;font-family:Arial;-inkscape-font-specification:ArialRegular;writing-mode:lr-tb;fill:#000000;fill-opacity:1;fill-rule:nonzero;stroke:none"
                 id="text178"><tspan
                   x="0"
                   y="0"
                   id="tspan176"></tspan></text>
</g></g><g
             id="g180"
             transform="rotate(-20,460.18462,-560.05361)" /><g
             id="g182"
             transform="rotate(-20,460.18462,-560.05361)" /><g
             id="g184"
             transform="rotate(15,-512.07792,838.47574)"><path
               d="M 22.862967,1.5 Z"
               style="fill:none;stroke:#808080;stroke-width:0.9375;stroke-linecap:butt;stroke-linejoin:bevel;stroke-miterlimit:10;stroke-dasharray:1, 2;stroke-dashoffset:0;stroke-opacity:1"
               id="path186"
               inkscape:connector-curvature="0" /></g><g
             id="g188"
             transform="rotate(15,-512.07792,838.47574)"><path
               d="M 0,1.5 H 22.862967"
               style="fill:none;stroke:#000000;stroke-width:0.9375;stroke-linecap:butt;stroke-linejoin:bevel;stroke-miterlimit:10;stroke-dasharray:none;stroke-opacity:1"
               id="path190"
               inkscape:connector-curvature="0" /></g><g
             id="g192"
             transform="rotate(15,-523.5094,925.30648)"><path
               d="M 3,1.5 C 3,2.3284271 2.3284271,3 1.5,3 0.67157288,3 0,2.3284271 0,1.5 0,0.67157288 0.67157288,0 1.5,0 2.3284271,0 3,0.67157288 3,1.5 Z"
               style="fill:#0030c1;fill-opacity:1;fill-rule:evenodd;stroke:#0030c1;stroke-width:1;stroke-linecap:square;stroke-linejoin:bevel;stroke-miterlimit:10;stroke-dasharray:none;stroke-opacity:1"
               id="path194"
               inkscape:connector-curvature="0" /></g><g
             id="g196"
             transform="rotate(15,-530.70622,935.95011)" /><g
             id="g198"
             transform="rotate(15,-529.20622,924.55647)" /><g
             id="g200"
             transform="rotate(15,-529.20622,924.55647)" /><g
             id="g202"
             transform="translate(149.15024,149.15024)"><path
               d="M 67.272458,38.843701 C 73.884261,27.417561 77.668576,14.150717 77.668576,0"
               style="fill:none;stroke:#000000;stroke-width:0.9375;stroke-linecap:butt;stroke-linejoin:bevel;stroke-miterlimit:10;stroke-dasharray:none;stroke-opacity:1"
               id="path204"
               inkscape:connector-curvature="0" /></g><g
             id="g206"
             transform="translate(226.81882,140.65024)"><path
               d="M 22.862967,8.5 Z"
               style="fill:none;stroke:#808080;stroke-width:0.9375;stroke-linecap:butt;stroke-linejoin:bevel;stroke-miterlimit:10;stroke-dasharray:1, 2;stroke-dashoffset:0;stroke-opacity:1"
               id="path208"
               inkscape:connector-curvature="0" /></g><g
             id="g210"
             transform="translate(226.81882,140.65024)"><path
               d="M 0,8.5 H 22.862967"
               style="fill:none;stroke:#000000;stroke-width:0.9375;stroke-linecap:butt;stroke-linejoin:bevel;stroke-miterlimit:10;stroke-dasharray:none;stroke-opacity:1"
               id="path212"
               inkscape:connector-curvature="0" /></g><g
             id="g214"
             transform="translate(249.68179,147.65024)"><path
               d="M 3,1.5 C 3,2.3284271 2.3284271,3 1.5,3 0.67157288,3 0,2.3284271 0,1.5 0,0.67157288 0.67157288,0 1.5,0 2.3284271,0 3,0.67157288 3,1.5 Z"
               style="fill:#0030c1;fill-opacity:1;fill-rule:evenodd;stroke:#0030c1;stroke-width:1;stroke-linecap:square;stroke-linejoin:bevel;stroke-miterlimit:10;stroke-dasharray:none;stroke-opacity:1"
               id="path216"
               inkscape:connector-curvature="0" /></g><g
             id="g218"
             transform="translate(252.68179,140.65024)" /><g
             id="g220"
             transform="translate(252.68179,140.65024)"><g
               id="g222"><text
                 transform="translate(0,14)"
                 style="font-variant:normal;font-weight:normal;font-size:13px;font-family:'Segoe UI Emoji';-inkscape-font-specification:SegoeUIEmojiRegular;writing-mode:lr-tb;fill:#000000;fill-opacity:1;fill-rule:nonzero;stroke:none"
                 id="text226"><tspan
                   x="0"
                   y="0"
                   id="tspan224"></tspan></text>
</g></g><g
             id="g228"
             transform="translate(249.68179,149.15024)" /><g
             id="g230"
             transform="translate(249.68179,149.15024)" /><g
             id="g232"
             transform="rotate(30,-239.77827,498.57481)"><path
               d="M 22.862967,1.5 Z"
               style="fill:none;stroke:#808080;stroke-width:0.9375;stroke-linecap:butt;stroke-linejoin:bevel;stroke-miterlimit:10;stroke-dasharray:1, 2;stroke-dashoffset:0;stroke-opacity:1"
               id="path234"
               inkscape:connector-curvature="0" /></g><g
             id="g236"
             transform="rotate(30,-239.77827,498.57481)"><path
               d="M 0,1.5 H 22.862967"
               style="fill:none;stroke:#000000;stroke-width:0.9375;stroke-linecap:butt;stroke-linejoin:bevel;stroke-miterlimit:10;stroke-dasharray:none;stroke-opacity:1"
               id="path238"
               inkscape:connector-curvature="0" /></g><g
             id="g240"
             transform="rotate(30,-251.20976,541.23769)"><path
               d="M 3,1.5 C 3,2.3284271 2.3284271,3 1.5,3 0.67157288,3 0,2.3284271 0,1.5 0,0.67157288 0.67157288,0 1.5,0 2.3284271,0 3,0.67157288 3,1.5 Z"
               style="fill:#0030c1;fill-opacity:1;fill-rule:evenodd;stroke:#0030c1;stroke-width:1;stroke-linecap:square;stroke-linejoin:bevel;stroke-miterlimit:10;stroke-dasharray:none;stroke-opacity:1"
               id="path242"
               inkscape:connector-curvature="0" /></g><g
             id="g244"
             transform="rotate(30,-255.5088,546.08576)" /><g
             id="g246"
             transform="rotate(30,-254.00879,540.48768)" /><g
             id="g248"
             transform="rotate(30,-254.00879,540.48768)" /><g
             id="g250"
             transform="translate(149.15024,149.15024)"><path
               d="M 79.319921,66.557321 C 87.01222,57.399605 93.147833,46.890525 97.319308,35.437535"
               style="fill:none;stroke:#000000;stroke-width:0.9375;stroke-linecap:butt;stroke-linejoin:bevel;stroke-miterlimit:10;stroke-dasharray:none;stroke-opacity:1"
               id="path252"
               inkscape:connector-curvature="0" /></g><g
             id="g254"
             transform="rotate(20,-376.02967,795.37075)"><path
               d="M 22.862967,8.5 Z"
               style="fill:none;stroke:#808080;stroke-width:0.9375;stroke-linecap:butt;stroke-linejoin:bevel;stroke-miterlimit:10;stroke-dasharray:1, 2;stroke-dashoffset:0;stroke-opacity:1"
               id="path256"
               inkscape:connector-curvature="0" /></g><g
             id="g258"
             transform="rotate(20,-376.02967,795.37075)"><path
               d="M 0,8.5 H 22.862967"
               style="fill:none;stroke:#000000;stroke-width:0.9375;stroke-linecap:butt;stroke-linejoin:bevel;stroke-miterlimit:10;stroke-dasharray:none;stroke-opacity:1"
               id="path260"
               inkscape:connector-curvature="0" /></g><g
             id="g262"
             transform="rotate(20,-407.31064,856.70192)"><path
               d="M 3,1.5 C 3,2.3284271 2.3284271,3 1.5,3 0.67157288,3 0,2.3284271 0,1.5 0,0.67157288 0.67157288,0 1.5,0 2.3284271,0 3,0.67157288 3,1.5 Z"
               style="fill:#0030c1;fill-opacity:1;fill-rule:evenodd;stroke:#0030c1;stroke-width:1;stroke-linecap:square;stroke-linejoin:bevel;stroke-miterlimit:10;stroke-dasharray:none;stroke-opacity:1"
               id="path264"
               inkscape:connector-curvature="0" /></g><g
             id="g266"
             transform="rotate(20,-388.96115,868.70884)" /><g
             id="g268"
             transform="rotate(20,-388.96115,868.70884)"><g
               id="g270"><text
                 transform="translate(0,14)"
                 style="font-variant:normal;font-weight:normal;font-size:13px;font-family:'Segoe UI Emoji';-inkscape-font-specification:SegoeUIEmojiRegular;writing-mode:lr-tb;fill:#000000;fill-opacity:1;fill-rule:nonzero;stroke:none"
                 id="text274"><tspan
                   x="0"
                   y="0"
                   id="tspan272"></tspan></text>
</g></g><g
             id="g276"
             transform="rotate(20,-411.5641,855.95192)" /><g
             id="g278"
             transform="rotate(20,-411.5641,855.95192)" /><g
             id="g280"
             transform="rotate(40,-170.41277,425.9588)"><path
               d="M 22.862967,8.5 Z"
               style="fill:none;stroke:#808080;stroke-width:0.9375;stroke-linecap:butt;stroke-linejoin:bevel;stroke-miterlimit:10;stroke-dasharray:1, 2;stroke-dashoffset:0;stroke-opacity:1"
               id="path282"
               inkscape:connector-curvature="0" /></g><g
             id="g284"
             transform="rotate(40,-170.41277,425.9588)"><path
               d="M 0,8.5 H 22.862967"
               style="fill:none;stroke:#000000;stroke-width:0.9375;stroke-linecap:butt;stroke-linejoin:bevel;stroke-miterlimit:10;stroke-dasharray:none;stroke-opacity:1"
               id="path286"
               inkscape:connector-curvature="0" /></g><g
             id="g288"
             transform="rotate(40,-191.46042,453.86655)"><path
               d="M 3,1.5 C 3,2.3284271 2.3284271,3 1.5,3 0.67157288,3 0,2.3284271 0,1.5 0,0.67157288 0.67157288,0 1.5,0 2.3284271,0 3,0.67157288 3,1.5 Z"
               style="fill:#0030c1;fill-opacity:1;fill-rule:evenodd;stroke:#0030c1;stroke-width:1;stroke-linecap:square;stroke-linejoin:bevel;stroke-miterlimit:10;stroke-dasharray:none;stroke-opacity:1"
               id="path290"
               inkscape:connector-curvature="0" /></g><g
             id="g292"
             transform="rotate(40,-183.34425,461.48776)" /><g
             id="g294"
             transform="rotate(40,-183.34425,461.48776)"><g
               id="g296"><text
                 transform="translate(0,14)"
                 style="font-variant:normal;font-weight:normal;font-size:13px;font-family:'Segoe UI Emoji';-inkscape-font-specification:SegoeUIEmojiRegular;writing-mode:lr-tb;fill:#000000;fill-opacity:1;fill-rule:nonzero;stroke:none"
                 id="text300"><tspan
                   x="0"
                   y="0"
                   id="tspan298"></tspan></text>
</g></g><g
             id="g302"
             transform="rotate(40,-193.52103,453.11655)" /><g
             id="g304"
             transform="rotate(40,-193.52103,453.11655)" /><g
             id="g306"
             transform="rotate(-36.25,290.94811,-188.24052)" /><g
             id="g308"
             transform="rotate(-60,190.53187,-77.475161)" /><g
             id="g310"
             transform="rotate(-12.5,742.55163,-724.73961)" /><g
             id="g312"
             transform="rotate(-40,253.38457,-201.9836)" /><g
             id="g314"
             transform="rotate(-20,471.43394,-496.25551)" /><g
             id="g316"
             transform="rotate(15,-517.78198,837.78075)" /><g
             id="g318"
             transform="translate(227.11571,149.15024)" /><g
             id="g320"
             transform="rotate(30,-242.58274,497.84508)" /><g
             id="g322"
             transform="rotate(20,-400.25505,791.81511)" /><g
             id="g324"
             transform="rotate(40,-182.21198,422.04519)" /><g
             id="g326"
             transform="translate(1.5,297.80049)"><path
               d="M 0,5 H 50"
               style="fill:none;stroke:#000000;stroke-width:1;stroke-linecap:square;stroke-linejoin:bevel;stroke-miterlimit:10;stroke-dasharray:none;stroke-opacity:1"
               id="path328"
               inkscape:connector-curvature="0" /></g><g
             id="g330"
             transform="translate(1.5,297.80049)"><path
               d="M 0,0 V 10"
               style="fill:none;stroke:#000000;stroke-width:1;stroke-linecap:square;stroke-linejoin:bevel;stroke-miterlimit:10;stroke-dasharray:none;stroke-opacity:1"
               id="path332"
               inkscape:connector-curvature="0" /></g><g
             id="g334"
             transform="translate(1.5,297.80049)"><path
               d="M 50,0 V 10"
               style="fill:none;stroke:#000000;stroke-width:1;stroke-linecap:square;stroke-linejoin:bevel;stroke-miterlimit:10;stroke-dasharray:none;stroke-opacity:1"
               id="path336"
               inkscape:connector-curvature="0" /></g><g
             id="g338"
             transform="translate(1.5,307.80049)"><g
               id="g340"><text
                 transform="translate(0,11)"
                 style="font-variant:normal;font-weight:normal;font-size:11px;font-family:Tahoma;-inkscape-font-specification:TahomaRegular;writing-mode:lr-tb;fill:#000000;fill-opacity:1;fill-rule:nonzero;stroke:none"
                 id="text344"><tspan
                   x="0 6 10 16 22 28 34"
                   y="0"
                   sodipodi:role="line"
                   id="tspan342">2.18694</tspan></text>
</g></g><g
             id="g346"
             transform="translate(0.5,0.5)"><path
               d="M 0,0 V 0 0 Z"
               style="fill:none;stroke:#000000;stroke-width:1;stroke-linecap:square;stroke-linejoin:bevel;stroke-miterlimit:10;stroke-dasharray:none;stroke-opacity:1"
               id="path348"
               inkscape:connector-curvature="0" /></g><g
             id="g350"
             transform="translate(0.5,0.5)"><path
               d="M 132,53 H 334 V 276 H 132 Z"
               style="fill:none;stroke:#0000ff;stroke-width:1;stroke-linecap:square;stroke-linejoin:bevel;stroke-miterlimit:10;stroke-dasharray:none;stroke-opacity:1"
               id="path352"
               inkscape:connector-curvature="0" /></g></g></g><g
         id="g354"><g
           id="g356" /></g></g></g></svg>