<svg width="258.4" height="607"><defs></defs><g class="phylotree-container" transform="translate (12,37) "><g class="tree-selection-brush" style="pointer-events: all; -webkit-tap-highlight-color: rgba(0, 0, 0, 0);"><rect class="background" x="0" width="246.39999999999998" y="0" height="570" style="visibility: hidden; cursor: crosshair;"></rect><rect class="extent" x="0" width="0" y="0" height="0" style="cursor: move;"></rect><g class="resize n" transform="translate(0,0)" style="cursor: ns-resize; display: none;"><rect y="-3" width="0" height="6" style="visibility: hidden;"></rect></g><g class="resize e" transform="translate(0,0)" style="cursor: ew-resize; display: none;"><rect x="-3" width="6" height="0" style="visibility: hidden;"></rect></g><g class="resize s" transform="translate(0,0)" style="cursor: ns-resize; display: none;"><rect y="-3" width="0" height="6" style="visibility: hidden;"></rect></g><g class="resize w" transform="translate(0,0)" style="cursor: ew-resize; display: none;"><rect x="-3" width="6" height="0" style="visibility: hidden;"></rect></g><g class="resize nw" transform="translate(0,0)" style="cursor: nwse-resize; display: none;"><rect x="-3" y="-3" width="6" height="6" style="visibility: hidden;"></rect></g><g class="resize ne" transform="translate(0,0)" style="cursor: nesw-resize; display: none;"><rect x="-3" y="-3" width="6" height="6" style="visibility: hidden;"></rect></g><g class="resize se" transform="translate(0,0)" style="cursor: nwse-resize; display: none;"><rect x="-3" y="-3" width="6" height="6" style="visibility: hidden;"></rect></g><g class="resize sw" transform="translate(0,0)" style="cursor: nesw-resize; display: none;"><rect x="-3" y="-3" width="6" height="6" style="visibility: hidden;"></rect></g></g><path class="branch" d="M106.26746570912965,540V547.5H124.20788859393573"><title>Length = 0.15745</title></path><path class="branch" d="M106.26746570912965,540V532.5H125.36088407930475"><title>Length = 0.167569</title></path><path class="branch" d="M94.32811143070073,551.25V562.5H113.30621885797699"><title>Length = 0.166557</title></path><path class="branch" d="M94.32811143070073,551.25V540H106.26746570912965"><title>Length = 0.104783</title></path><path class="branch" d="M94.48204926059829,495V502.5H114.16387248169202"><title>Length = 0.172733</title></path><path class="branch" d="M94.48204926059829,495V487.5H111.67716693048206"><title>Length = 0.150909</title></path><path class="branch" d="M85.12009965447366,506.25V517.5H96.420116284083"><title>Length = 0.099172</title></path><path class="branch" d="M85.12009965447366,506.25V495H94.48204926059829"><title>Length = 0.082163</title></path><path class="branch" d="M54.088922216542144,489.375V506.25H85.12009965447366"><title>Length = 0.272338</title></path><path class="branch" d="M54.088922216542144,489.375V472.5H142.01522533120638"><title>Length = 0.771665</title></path><path class="branch" d="M52.48744464495784,520.3125V551.25H94.32811143070073"><title>Length = 0.367205</title></path><path class="branch" d="M52.48744464495784,520.3125V489.375H54.088922216542144"><title>Length = 0.014055</title></path><path class="branch" d="M62.105995282118236,450V457.5H96.24430127924808"><title>Length = 0.299607</title></path><path class="branch" d="M62.105995282118236,450V442.5H112.45107199389015"><title>Length = 0.441842</title></path><path class="branch" d="M46.68862596313154,485.15625V520.3125H52.48744464495784"><title>Length = 0.050892</title></path><path class="branch" d="M46.68862596313154,485.15625V450H62.105995282118236"><title>Length = 0.135307</title></path><path class="branch" d="M33.61576055826214,456.328125V485.15625H46.68862596313154"><title>Length = 0.114731</title></path><path class="branch" d="M33.61576055826214,456.328125V427.5H97.2080364126853"><title>Length = 0.558103</title></path><path class="branch" d="M111.74120324462156,390V397.5H124.26497434728783"><title>Length = 0.109912</title></path><path class="branch" d="M111.74120324462156,390V382.5H148"><title>Length = 0.318217</title></path><path class="branch" d="M97.65298624669718,401.25V412.5H142.89999753635416"><title>Length = 0.3971</title></path><path class="branch" d="M97.65298624669718,401.25V390H111.74120324462156"><title>Length = 0.123642</title></path><path class="branch" d="M97.09591589113148,360V367.5H138.34521529184963"><title>Length = 0.362015</title></path><path class="branch" d="M97.09591589113148,360V352.5H118.70919740578093"><title>Length = 0.189684</title></path><path class="branch" d="M64.9338480300072,380.625V401.25H97.65298624669718"><title>Length = 0.287152</title></path><path class="branch" d="M64.9338480300072,380.625V360H97.09591589113148"><title>Length = 0.282263</title></path><path class="branch" d="M103.16535066918777,300V307.5H112.78082482862261"><title>Length = 0.084388</title></path><path class="branch" d="M103.16535066918777,300V292.5H106.49444139910445"><title>Length = 0.029217</title></path><path class="branch" d="M80.24376851583814,288.75V300H103.16535066918777"><title>Length = 0.201166</title></path><path class="branch" d="M80.24376851583814,288.75V277.5H116.41574023318407"><title>Length = 0.317455</title></path><path class="branch" d="M73.87340863877408,305.625V322.5H102.64200762498383"><title>Length = 0.252481</title></path><path class="branch" d="M73.87340863877408,305.625V288.75H80.24376851583814"><title>Length = 0.055908</title></path><path class="branch" d="M104.05958019475119,255V262.5H108.59430836222984"><title>Length = 0.039798</title></path><path class="branch" d="M104.05958019475119,255V247.5H105.45778234920947"><title>Length = 0.012271</title></path><path class="branch" d="M109.12608323427422,225V232.5H110.68164152721403"><title>Length = 0.013652</title></path><path class="branch" d="M109.12608323427422,225V217.5H111.84660109262691"><title>Length = 0.023876</title></path><path class="branch" d="M102.49695739740454,213.75V225H109.12608323427422"><title>Length = 0.058179</title></path><path class="branch" d="M102.49695739740454,213.75V202.5H111.76034577269171"><title>Length = 0.081298</title></path><path class="branch" d="M98.51166536298742,172.5V187.5H103.8525446381828"><title>Length = 0.046873</title></path><path class="branch" d="M98.51166536298742,172.5V172.5H100.25477485356706"><title>Length = 0.015298</title></path><path class="branch" d="M98.51166536298742,172.5V157.5H101.6799816458386"><title>Length = 0.027806</title></path><path class="branch" d="M99.19692229045152,120V127.5H100.79953929823048"><title>Length = 0.014065</title></path><path class="branch" d="M99.19692229045152,120V112.5H100.12134687517323"><title>Length = 0.008113</title></path><path class="branch" d="M93.15893595136762,145V172.5H98.51166536298742"><title>Length = 0.046977</title></path><path class="branch" d="M93.15893595136762,145V142.5H100.10983856960723"><title>Length = 0.061003</title></path><path class="branch" d="M93.15893595136762,145V120H99.19692229045152"><title>Length = 0.052991</title></path><path class="branch" d="M92.03978172097979,179.37499999999997V213.75H102.49695739740454"><title>Length = 0.091775</title></path><path class="branch" d="M92.03978172097979,179.37499999999997V145H93.15893595136762"><title>Length = 0.009822</title></path><path class="branch" d="M83.68247300768041,217.1875V255H104.05958019475119"><title>Length = 0.178835</title></path><path class="branch" d="M83.68247300768041,217.1875V179.37499999999997H92.03978172097979"><title>Length = 0.073346</title></path><path class="branch" d="M66.8197288757768,261.40625V305.625H73.87340863877408"><title>Length = 0.061905</title></path><path class="branch" d="M66.8197288757768,261.40625V217.1875H83.68247300768041"><title>Length = 0.147992</title></path><path class="branch" d="M48.90619668516454,326.5104166666667V380.625H64.9338480300072"><title>Length = 0.140663</title></path><path class="branch" d="M48.90619668516454,326.5104166666667V337.5H130.6261047911752"><title>Length = 0.717196</title></path><path class="branch" d="M48.90619668516454,326.5104166666667V261.40625H66.8197288757768"><title>Length = 0.157214</title></path><path class="branch" d="M58.205591244202736,90V97.5H102.66217564562919"><title>Length = 0.390163</title></path><path class="branch" d="M58.205591244202736,90V82.5H97.00282395402837"><title>Length = 0.340495</title></path><path class="branch" d="M33.07361681684641,78.75V90H58.205591244202736"><title>Length = 0.220565</title></path><path class="branch" d="M33.07361681684641,78.75V67.5H84.46526567340679"><title>Length = 0.451027</title></path><path class="branch" d="M25.350746176729633,202.63020833333334V326.5104166666667H48.90619668516454"><title>Length = 0.206729</title></path><path class="branch" d="M25.350746176729633,202.63020833333334V78.75H33.07361681684641"><title>Length = 0.067778</title></path><path class="branch" d="M38.934762658520214,45V52.5H62.02350010162539"><title>Length = 0.202633</title></path><path class="branch" d="M38.934762658520214,45V37.5H68.95742512056466"><title>Length = 0.263487</title></path><path class="branch" d="M37.116108548235104,15V22.5H61.388264423106534"><title>Length = 0.213019</title></path><path class="branch" d="M37.116108548235104,15V7.5H54.23909990699737"><title>Length = 0.150276</title></path><path class="branch" d="M10.800145971015207,30V45H38.934762658520214"><title>Length = 0.246917</title></path><path class="branch" d="M10.800145971015207,30V15H37.116108548235104"><title>Length = 0.230956</title></path><path class="branch" d="M0,229.65277777777777V456.328125H33.61576055826214"><title>Length = 0.295021</title></path><path class="branch" d="M0,229.65277777777777V202.63020833333334H25.350746176729633"><title>Length = 0.222485</title></path><path class="branch" d="M0,229.65277777777777V30H10.800145971015207"><title>Length = 0.094785</title></path><g class="internal-node" transform="translate(0,229.65277099609375)"><circle r="3"></circle></g><g class="internal-node" transform="translate(10.800146102905273,30)"><circle r="3"></circle></g><g class="internal-node" transform="translate(37.11610794067383,15)"><circle r="3"></circle></g><g class="node" transform="translate(54.23910140991211,7.5)"><text dy="3.96" dx="3.96" transform="" text-anchor="start" style="opacity: 1; font-size: 12px;">EELA</text></g><g class="node" transform="translate(61.38826370239258,22.5)"><text dy="3.96" dx="3.96" transform="" text-anchor="start" style="opacity: 1; font-size: 12px;">CONGERA</text></g><g class="internal-node" transform="translate(38.93476104736328,45)"><circle r="3"></circle></g><g class="node" transform="translate(68.95742797851562,37.5)"><text dy="3.96" dx="3.96" transform="" text-anchor="start" style="opacity: 1; font-size: 12px;">EELB</text></g><g class="node" transform="translate(62.02349853515625,52.5)"><text dy="3.96" dx="3.96" transform="" text-anchor="start" style="opacity: 1; font-size: 12px;">CONGERB</text></g><g class="internal-node" transform="translate(25.350746154785156,202.6302032470703)"><circle r="3"></circle></g><g class="internal-node" transform="translate(33.07361602783203,78.75)"><circle r="3"></circle></g><g class="node" transform="translate(84.46526336669922,67.5)"><text dy="3.96" dx="3.96" transform="" text-anchor="start" style="opacity: 1; font-size: 12px;">CAVEFISH</text></g><g class="internal-node" transform="translate(58.20559310913086,90)"><circle r="3"></circle></g><g class="node" transform="translate(97.00282287597656,82.5)"><text dy="3.96" dx="3.96" transform="" text-anchor="start" style="opacity: 1; font-size: 12px;">GOLDFISH</text></g><g class="node" transform="translate(102.66217803955078,97.5)"><text dy="3.96" dx="3.96" transform="" text-anchor="start" style="opacity: 1; font-size: 12px;">ZEBRAFISH</text></g><g class="internal-node" transform="translate(48.90619659423828,326.5104064941406)"><circle r="3"></circle></g><g class="internal-node" transform="translate(66.81973266601562,261.40625)"><circle r="3"></circle></g><g class="internal-node" transform="translate(83.6824722290039,217.1875)"><circle r="3"></circle></g><g class="internal-node" transform="translate(92.03977966308594,179.375)"><circle r="3"></circle></g><g class="internal-node" transform="translate(93.158935546875,145)"><circle r="3"></circle></g><g class="internal-node" transform="translate(99.1969223022461,120)"><circle r="3"></circle></g><g class="node" transform="translate(100.12134552001953,112.5)"><text dy="3.96" dx="3.96" transform="" text-anchor="start" style="opacity: 1; font-size: 12px;">NSAM</text></g><g class="node" transform="translate(100.7995376586914,127.5)"><text dy="3.96" dx="3.96" transform="" text-anchor="start" style="opacity: 1; font-size: 12px;">NARG</text></g><g class="node" transform="translate(100.1098403930664,142.5)"><text dy="3.96" dx="3.96" transform="" text-anchor="start" style="opacity: 1; font-size: 12px;">SPUN</text></g><g class="internal-node" transform="translate(98.51166534423828,172.5)"><circle r="3"></circle></g><g class="node" transform="translate(101.67998504638672,157.5)"><text dy="3.96" dx="3.96" transform="" text-anchor="start" style="opacity: 1; font-size: 12px;">SMIC</text></g><g class="node" transform="translate(100.25477600097656,172.5)"><text dy="3.96" dx="3.96" transform="" text-anchor="start" style="opacity: 1; font-size: 12px;">SDIA</text></g><g class="node" transform="translate(103.85254669189453,187.5)"><text dy="3.96" dx="3.96" transform="" text-anchor="start" style="opacity: 1; font-size: 12px;">SXAN</text></g><g class="internal-node" transform="translate(102.49695587158203,213.75)"><circle r="3"></circle></g><g class="node" transform="translate(111.76034545898438,202.5)"><text dy="3.96" dx="3.96" transform="" text-anchor="start" style="opacity: 1; font-size: 12px;">NAUR</text></g><g class="internal-node" transform="translate(109.12608337402344,225)"><circle r="3"></circle></g><g class="node" transform="translate(111.84660339355469,217.5)"><text dy="3.96" dx="3.96" transform="" text-anchor="start" style="opacity: 1; font-size: 12px;">SSPI</text></g><g class="node" transform="translate(110.681640625,232.5)"><text dy="3.96" dx="3.96" transform="" text-anchor="start" style="opacity: 1; font-size: 12px;">STIE</text></g><g class="internal-node" transform="translate(104.05957794189453,255)"><circle r="3"></circle></g><g class="node" transform="translate(105.45777893066406,247.5)"><text dy="3.96" dx="3.96" transform="" text-anchor="start" style="opacity: 1; font-size: 12px;">MVIO</text></g><g class="node" transform="translate(108.59430694580078,262.5)"><text dy="3.96" dx="3.96" transform="" text-anchor="start" style="opacity: 1; font-size: 12px;">MBER</text></g><g class="internal-node" transform="translate(73.87340545654297,305.625)"><circle r="3"></circle></g><g class="internal-node" transform="translate(80.24376678466797,288.75)"><circle r="3"></circle></g><g class="node" transform="translate(116.41574096679688,277.5)"><text dy="3.96" dx="3.96" transform="" text-anchor="start" style="opacity: 1; font-size: 12px;">BFNKILLIFISH</text></g><g class="internal-node" transform="translate(103.16535186767578,300)"><circle r="3"></circle></g><g class="node" transform="translate(106.49443817138672,292.5)"><text dy="3.96" dx="3.96" transform="" text-anchor="start" style="opacity: 1; font-size: 12px;">ONIL</text></g><g class="node" transform="translate(112.78082275390625,307.5)"><text dy="3.96" dx="3.96" transform="" text-anchor="start" style="opacity: 1; font-size: 12px;">XCAU</text></g><g class="node" transform="translate(102.64200592041016,322.5)"><text dy="3.96" dx="3.96" transform="" text-anchor="start" style="opacity: 1; font-size: 12px;">THORNYHEAD</text></g><g class="node" transform="translate(130.6260986328125,337.5)"><text dy="3.96" dx="3.96" transform="" text-anchor="start" style="opacity: 1; font-size: 12px;">LAMPFISH</text></g><g class="internal-node" transform="translate(64.93384552001953,380.625)"><circle r="3"></circle></g><g class="internal-node" transform="translate(97.09591674804688,360)"><circle r="3"></circle></g><g class="node" transform="translate(118.70919799804688,352.5)"><text dy="3.96" dx="3.96" transform="" text-anchor="start" style="opacity: 1; font-size: 12px;">SCABBARDA</text></g><g class="node" transform="translate(138.34521484375,367.5)"><text dy="3.96" dx="3.96" transform="" text-anchor="start" style="opacity: 1; font-size: 12px;">SCABBARDB</text></g><g class="internal-node" transform="translate(97.65298461914062,401.25)"><circle r="3"></circle></g><g class="internal-node" transform="translate(111.74120330810547,390)"><circle r="3"></circle></g><g class="node" transform="translate(148,382.5)"><text dy="3.96" dx="3.96" transform="" text-anchor="start" style="opacity: 1; font-size: 12px;">VIPERFISH</text></g><g class="node" transform="translate(124.26497650146484,397.5)"><text dy="3.96" dx="3.96" transform="" text-anchor="start" style="opacity: 1; font-size: 12px;">BLACKDRAGON</text></g><g class="node" transform="translate(142.89999389648438,412.5)"><text dy="3.96" dx="3.96" transform="" text-anchor="start" style="opacity: 1; font-size: 12px;">LOOSEJAW</text></g><g class="internal-node" transform="translate(33.615760803222656,456.328125)"><circle r="3"></circle></g><g class="node" transform="translate(97.20803833007812,427.5)"><text dy="3.96" dx="3.96" transform="" text-anchor="start" style="opacity: 1; font-size: 12px;">COELACANTH</text></g><g class="internal-node" transform="translate(46.68862533569336,485.15625)"><circle r="3"></circle></g><g class="internal-node" transform="translate(62.105995178222656,450)"><circle r="3"></circle></g><g class="node" transform="translate(112.4510726928711,442.5)"><text dy="3.96" dx="3.96" transform="" text-anchor="start" style="opacity: 1; font-size: 12px;">CLAWEDFROG</text></g><g class="node" transform="translate(96.24430084228516,457.5)"><text dy="3.96" dx="3.96" transform="" text-anchor="start" style="opacity: 1; font-size: 12px;">SALAMANDER</text></g><g class="internal-node" transform="translate(52.48744583129883,520.3125)"><circle r="3"></circle></g><g class="internal-node" transform="translate(54.08892059326172,489.375)"><circle r="3"></circle></g><g class="node" transform="translate(142.01522827148438,472.5)"><text dy="3.96" dx="3.96" transform="" text-anchor="start" style="opacity: 1; font-size: 12px;">CHAMELEON</text></g><g class="internal-node" transform="translate(85.12010192871094,506.25)"><circle r="3"></circle></g><g class="internal-node" transform="translate(94.48204803466797,495)"><circle r="3"></circle></g><g class="node" transform="translate(111.67716979980469,487.5)"><text dy="3.96" dx="3.96" transform="" text-anchor="start" style="opacity: 1; font-size: 12px;">PIGEON</text></g><g class="node" transform="translate(114.16387176513672,502.5)"><text dy="3.96" dx="3.96" transform="" text-anchor="start" style="opacity: 1; font-size: 12px;">CHICKEN</text></g><g class="node" transform="translate(96.42011260986328,517.5)"><text dy="3.96" dx="3.96" transform="" text-anchor="start" style="opacity: 1; font-size: 12px;">ZEBRAFINCH</text></g><g class="internal-node" transform="translate(94.32810974121094,551.25)"><circle r="3"></circle></g><g class="internal-node" transform="translate(106.26746368408203,540)"><circle r="3"></circle></g><g class="node" transform="translate(125.36088562011719,532.5)"><text dy="3.96" dx="3.96" transform="" text-anchor="start" style="opacity: 1; font-size: 12px;">BOVINE</text></g><g class="node" transform="translate(124.2078857421875,547.5)"><text dy="3.96" dx="3.96" transform="" text-anchor="start" style="opacity: 1; font-size: 12px;">DOLPHIN</text></g><g class="node" transform="translate(113.30622100830078,562.5)"><text dy="3.96" dx="3.96" transform="" text-anchor="start" style="opacity: 1; font-size: 12px;">ELEPHANT</text></g></g><g class="tree-scale-bar" transform="translate (12,27) " style="font-size: 12px;"><g class="tick" transform="translate(12,0)" style="opacity: 1;"><line y2="-6" x2="0"></line><text dy="0em" y="-9" x="0" style="text-anchor: end;"></text></g><g class="tick" transform="translate(68.97180973263283,0)" style="opacity: 1;"><line y2="-6" x2="0"></line><text dy="0em" y="-9" x="0" style="text-anchor: end;">0.50</text></g><g class="tick" transform="translate(125.94361946526567,0)" style="opacity: 1;"><line y2="-6" x2="0"></line><text dy="0em" y="-9" x="0" style="text-anchor: end;">1.0</text></g><path class="domain" d="M12,-6V0H160V-6"></path></g></svg>